<?xml version="1.0" encoding="UTF-8"?>
<svg width="513px" height="130px" viewBox="0 0 513 130" version="1.1" xmlns="http://www.w3.org/2000/svg" xmlns:xlink="http://www.w3.org/1999/xlink">
    <!-- Generator: Sketch 52.5 (67469) - http://www.bohemiancoding.com/sketch -->
    <title>链闻LOGO-黑-新</title>
    <desc>Created with Sketch.</desc>
    <g id="chainnews" stroke="none" stroke-width="1" fill="none" fill-rule="evenodd">
        <g id="黑白版" transform="translate(-344.000000, -205.000000)" fill="#202020">
            <g id="链闻LOGO-黑-新" transform="translate(344.000000, 205.000000)">
                <g id="Group">
                    <path d="M96.0088463,62.2357152 L86.2829139,62.2357152 C81.4199478,62.2357152 76.4180397,63.0655247 75.1675627,64.4485406 C74.3339114,61.4059056 71.9718992,54.214223 70.3045965,50.2034769 C72.8055506,49.511969 74.6117952,46.0544292 76.6959235,41.2138736 C77.5295749,39.2776514 79.0579356,34.9903021 80.7252383,29.5965401 L69.6098871,29.5965401 L69.6098871,15.2131748 L84.3377275,15.2131748 C85.4492626,10.2343176 86.4218558,5.1171588 87.1165653,0 L103.511708,2.90433338 C102.539115,7.05338105 101.566522,11.0641271 100.316045,15.2131748 L129.077016,15.2131748 L129.077016,29.5965401 L95.5920206,29.5965401 C93.0910666,36.373318 90.3122288,43.0117943 87.8112747,48.820461 L96.0088463,48.820461 L96.0088463,34.2987941 L111.431396,34.2987941 L111.431396,48.820461 L126.715004,48.820461 L126.715004,62.2357152 L111.431396,62.2357152 L111.431396,75.2360646 L130.466435,75.2360646 L130.466435,89.6194299 L111.431396,89.6194299 L111.431396,108.151843 L96.0088463,108.151843 L96.0088463,89.6194299 L70.3045965,89.6194299 L70.3045965,75.2360646 L96.0088463,75.2360646 L96.0088463,62.2357152 Z M66.2752817,31.3944608 L51.964267,35.9584132 C50.5748481,28.3518258 47.1013008,16.5961907 43.9056374,7.88319059 L57.5219426,3.8724445 C60.856548,12.5854446 64.607979,23.7878734 66.2752817,31.3944608 Z M30.7061578,101.236763 L40.8489158,93.7684775 C41.821509,97.7792236 43.9056374,103.58789 45.5729401,106.353922 C23.6201214,122.535208 19.7297484,125.992748 17.5066782,128.897081 L17.3677363,128.067272 C17.2287944,128.343875 17.2287944,128.620478 17.2287944,128.897081 C15.8393755,125.992748 11.8100607,120.460684 9.30910666,118.38616 C12.2268864,116.035033 16.2562012,110.917875 16.2562012,103.58789 L16.2562012,81.8745409 L3.89037293,81.8745409 L3.89037293,67.9060803 L16.2562012,67.9060803 L16.2562012,53.5227151 L9.86487422,53.5227151 L9.86487422,44.118207 C9.17016477,45.3629213 8.19757153,46.469334 7.36392019,47.2991435 C6.25238507,43.9799054 2.36201214,35.9584132 0,32.5008735 C6.39132696,24.6176829 11.2542931,12.8620478 14.3110147,0.968111125 L27.92732,4.84055563 C27.0936686,7.88319059 26.1210754,10.9258256 25.0095403,14.1067621 L43.3498698,14.1067621 L43.3498698,28.2135242 L19.4518647,28.2135242 C17.3677363,32.3625719 15.2836079,36.0967148 12.9215958,39.6925561 L40.0152644,39.6925561 L40.0152644,53.5227151 L30.7061578,53.5227151 L30.7061578,67.9060803 L43.9056374,67.9060803 L43.9056374,81.8745409 L30.7061578,81.8745409 L30.7061578,101.236763 Z M66.4142236,45.3629213 L66.4142236,101.78997 C68.7762358,103.034684 71.2771898,104.970906 74.6117952,106.907129 C81.5588897,111.056176 90.1732869,112.300891 100.871812,112.300891 C109.208326,112.300891 123.380399,111.471081 132.411622,110.226367 C131.022203,114.513716 128.938074,122.535208 128.799132,126.684256 C121.852038,127.237462 109.347268,127.652367 100.732871,127.652367 C88.783868,127.652367 80.4473545,125.577843 72.9444925,121.013891 C68.0815263,118.109557 63.9132696,114.652018 61.2733737,114.652018 C57.9387683,114.652018 52.5200346,122.811811 48.4907198,129.726891 L38.3479618,114.375414 C42.5162185,109.949763 47.1013008,106.077319 51.5474413,103.58789 L51.5474413,60.1611913 L43.4888117,60.1611913 L43.4888117,45.3629213 L66.4142236,45.3629213 Z M145.472159,129.588589 L145.472159,33.7455878 L162.284128,33.7455878 L162.284128,129.588589 L145.472159,129.588589 Z M147.973113,9.40450807 L159.922116,1.2447143 C166.452385,6.91507946 174.233131,14.9365716 177.84562,20.7452384 L164.924024,29.8731433 C161.72836,24.2027781 154.225498,15.3514764 147.973113,9.40450807 Z M191.600867,82.7043504 L191.600867,91.9705569 C199.798438,91.4173505 208.690719,90.8641442 217.721942,90.1726362 L217.721942,82.7043504 L191.600867,82.7043504 Z M217.721942,44.5331118 L191.600867,44.5331118 L191.600867,51.863096 L217.721942,51.863096 L217.721942,44.5331118 Z M191.600867,63.3421279 L191.600867,71.2253185 L217.721942,71.2253185 L217.721942,63.3421279 L191.600867,63.3421279 Z M243.148308,100.96016 L232.449783,101.928271 L232.449783,117.556351 L217.721942,117.556351 L217.721942,103.034684 C199.242671,104.556002 181.597051,105.800716 167.841804,106.907129 L166.452385,93.4918744 C169.648048,93.3535728 173.121595,93.0769696 176.873026,92.938668 L176.873026,44.5331118 L169.370164,44.5331118 L169.370164,31.9476671 L240.230529,31.9476671 L240.230529,44.5331118 L232.449783,44.5331118 L232.449783,89.0662235 L243.009366,88.3747156 L243.148308,100.96016 Z M265.517953,5.67036516 L265.517953,112.024287 C265.517953,119.907478 264.128534,123.779922 259.404509,126.407653 C254.819427,128.897081 248.011274,129.311986 238.563226,129.311986 C238.007458,125.162938 235.92333,118.38616 233.978143,114.375414 C239.118993,114.652018 244.815611,114.652018 246.621855,114.652018 C248.567042,114.513716 249.12281,113.96051 249.12281,112.024287 L249.12281,20.3303336 L183.542237,20.3303336 L183.542237,5.67036516 L265.517953,5.67036516 Z" id="链闻"></path>
                    <g id="Group-2" transform="translate(296.000000, 8.000000)">
                        <path d="M36.5477459,37.2903251 C36.8228008,37.2903251 37.0978517,37.3413606 37.3729067,37.4434332 C37.6479616,37.5455058 37.911552,37.7212948 38.1636857,37.9708055 L42.7708334,42.7681922 C40.7537636,45.3767134 38.226734,47.3444162 35.1896688,48.6713596 C32.1526035,49.998303 28.5597519,50.6617647 24.4110062,50.6617647 C20.6060792,50.6617647 17.1965948,50.0209854 14.1824508,48.7394076 C11.1683068,47.4578298 8.61262605,45.6885985 6.51533193,43.4316606 C4.41803782,41.1747227 2.80784436,38.4981933 1.68470324,35.4019921 C0.561562132,32.3057908 0,28.9431172 0,25.3138703 C0,21.6165751 0.641785294,18.2198778 1.92537514,15.1236766 C3.20896498,12.0274753 5.00252566,9.35661653 7.30611101,7.11102003 C9.60969635,4.86542353 12.365935,3.11887467 15.5749096,1.87132106 C18.7838842,0.623767449 22.3251638,0 26.1988545,0 C28.0783968,0 29.8490366,0.164447782 31.510827,0.49334828 C33.1726174,0.822248777 34.7255086,1.27589783 36.1695472,1.85430905 C37.6135858,2.43272027 38.9429982,3.12453508 40.1578243,3.92977423 C41.3726504,4.73501338 42.4499328,5.62529964 43.3897039,6.60065974 L39.4701903,11.8063347 C39.2180566,12.1238938 38.9200848,12.4130951 38.5762661,12.6739472 C38.2324474,12.9347993 37.7511084,13.0652234 37.1322348,13.0652234 C36.7196523,13.0652234 36.329997,12.9744936 35.963257,12.7930312 C35.596517,12.6115689 35.2068617,12.390415 34.7942792,12.1295629 C34.3816968,11.8687108 33.9290089,11.5851801 33.4362021,11.2789624 C32.9433953,10.9727447 32.3589123,10.689214 31.6827355,10.4283619 C31.0065587,10.1675098 30.2157875,9.94635588 29.3103983,9.76489353 C28.405009,9.58343119 27.3449172,9.49270138 26.1300911,9.49270138 C24.0213364,9.49270138 22.0959805,9.86129123 20.3539657,10.598482 C18.6119509,11.3356728 17.116362,12.3904068 15.867154,13.7627158 C14.617946,15.1350248 13.6438077,16.7965144 12.9447096,18.7472346 C12.2456116,20.6979548 11.8960678,22.8868115 11.8960678,25.3138703 C11.8960678,27.8543432 12.2456116,30.1112472 12.9447096,32.0846502 C13.6438077,34.0580532 14.5950251,35.7195428 15.7983906,37.069169 C17.0017561,38.4187952 18.4056614,39.4451762 20.0101487,40.1483427 C21.614636,40.8515093 23.3337038,41.2030873 25.1674036,41.2030873 C26.2217809,41.2030873 27.1844589,41.1520518 28.0554663,41.0499793 C28.9264737,40.9479067 29.7344355,40.7721177 30.479376,40.522607 C31.2243166,40.2730962 31.9348646,39.9498713 32.6110414,39.5529224 C33.2872182,39.1559735 33.969115,38.6626302 34.6567524,38.0728776 C34.9318074,37.8460496 35.2297792,37.6589194 35.5506766,37.5114813 C35.8715741,37.3640431 36.2039272,37.2903251 36.5477459,37.2903251 Z M91.7991359,50.1173804 L80.1093583,50.1173804 L80.1093583,29.1585845 L59.7553926,29.1585845 L59.7553926,50.1173804 L48.065615,50.1173804 L48.065615,0.544384308 L59.7553926,0.544384308 L59.7553926,21.265012 L80.1093583,21.265012 L80.1093583,0.544384308 L91.7991359,0.544384308 L91.7991359,50.1173804 Z M146.672327,50.1173804 L137.664322,50.1173804 C136.655787,50.1173804 135.824905,49.8848853 135.171649,49.419888 C134.518393,48.9548907 134.065706,48.3594764 133.813572,47.633627 L130.856746,38.9915261 L111.809285,38.9915261 L108.852459,47.633627 C108.623246,48.2687452 108.176288,48.8414771 107.511572,49.35184 C106.846856,49.8622028 106.033164,50.1173804 105.070472,50.1173804 L95.9937032,50.1173804 L115.384981,0.544384308 L127.281049,0.544384308 L146.672327,50.1173804 Z M114.491057,31.1660017 L128.174973,31.1660017 L123.567826,17.590418 C123.269849,16.7284718 122.920306,15.7134321 122.519184,14.5452682 C122.118062,13.3771044 121.722676,12.1125577 121.333015,10.7515901 C120.966275,12.1352405 120.58808,13.416799 120.198419,14.5963043 C119.808758,15.7758095 119.442024,16.7965199 119.098205,17.658466 L114.491057,31.1660017 Z M163.450596,50.1173804 L151.760819,50.1173804 L151.760819,0.544384308 L163.450596,0.544384308 L163.450596,50.1173804 Z M178.853597,0.544384308 C179.357865,0.544384308 179.781902,0.567066761 180.12572,0.612432347 C180.469539,0.657797933 180.778971,0.74285713 181.054026,0.867612492 C181.329081,0.992367853 181.592672,1.16815686 181.844805,1.39498479 C182.096939,1.62181272 182.38345,1.92802583 182.704348,2.31363331 L206.496483,32.0846502 C206.404798,31.1319729 206.336036,30.2076629 206.290193,29.3116926 C206.244351,28.4157223 206.22143,27.5708009 206.22143,26.7769032 L206.22143,0.544384308 L216.467176,0.544384308 L216.467176,50.1173804 L210.415997,50.1173804 C209.522068,50.1173804 208.765679,49.9812857 208.146805,49.7090922 C207.527931,49.4368987 206.931988,48.9378847 206.358957,48.2120353 L182.738729,18.6791866 C182.807493,19.5411327 182.864795,20.3860541 182.910638,21.213976 C182.95648,22.041898 182.979401,22.818772 182.979401,23.5446213 L182.979401,50.1173804 L172.733655,50.1173804 L172.733655,0.544384308 L178.853597,0.544384308 Z" id="CHAIN" fill-opacity="0.75"></path>
                        <path d="M7.16163516,70.3237961 C7.66933797,70.3237961 8.09626348,70.3464785 8.44242449,70.3918441 C8.7885855,70.4372097 9.10012573,70.5222689 9.37705454,70.6470243 C9.65398335,70.7717796 9.91936947,70.9475686 10.1732209,71.1743966 C10.4270723,71.4012245 10.7155355,71.7074376 11.0386191,72.0930451 L34.9928411,101.864062 C34.9005315,100.911385 34.8313004,99.9870747 34.7851456,99.0911044 C34.7389908,98.1951341 34.7159137,97.3502127 34.7159137,96.5563149 L34.7159137,70.3237961 L45.0314602,70.3237961 L45.0314602,119.896792 L38.9390569,119.896792 C38.0390383,119.896792 37.2774955,119.760697 36.6544057,119.488504 C36.0313159,119.21631 35.4313124,118.717296 34.8543774,117.991447 L11.073235,88.4585983 C11.1424672,89.3205445 11.2001598,90.1654658 11.2463146,90.9933878 C11.2924694,91.8213097 11.3155465,92.5981837 11.3155465,93.3240331 L11.3155465,119.896792 L1,119.896792 L1,70.3237961 L7.16163516,70.3237961 Z M85.8090232,70.3237961 L85.8090232,79.1700411 L65.1086984,79.1700411 L65.1086984,90.7382076 L80.9627933,90.7382076 L80.9627933,99.2442125 L65.1086984,99.2442125 L65.1086984,111.050547 L85.8090232,111.050547 L85.8090232,119.896792 L53.3392829,119.896792 L53.3392829,70.3237961 L85.8090232,70.3237961 Z M88.6475293,70.3237961 L98.4784528,70.3237961 C99.4938584,70.3237961 100.34194,70.5506206 101.022724,71.0042765 C101.703507,71.4579323 102.14774,72.0590173 102.355437,72.8075495 L109.278622,98.6658041 C109.509396,99.5050675 109.740167,100.401024 109.970941,101.353702 C110.201715,102.306379 110.374793,103.304407 110.49018,104.347815 C110.720954,103.281724 110.974801,102.278026 111.25173,101.33669 C111.528659,100.395354 111.794045,99.5050675 112.047897,98.6658041 L120.217255,72.8075495 C120.424952,72.1724313 120.869185,71.5996993 121.549969,71.0893365 C122.230752,70.5789737 123.055757,70.3237961 124.025008,70.3237961 L127.4866,70.3237961 C128.502006,70.3237961 129.338549,70.54495 129.996255,70.9872644 C130.653961,71.4295789 131.109733,72.0363345 131.363584,72.8075495 L139.463711,98.6658041 C139.717563,99.4597019 139.982949,100.304623 140.259878,101.200594 C140.536807,102.096564 140.779116,103.054898 140.986812,104.075623 C141.171431,103.07758 141.361817,102.124917 141.557975,101.217606 C141.754133,100.310294 141.956057,99.4597019 142.163754,98.6658041 L149.086939,72.8075495 C149.271559,72.1497485 149.710023,71.5713459 150.402345,71.0723245 C151.094667,70.5733031 151.925441,70.3237961 152.894691,70.3237961 L162.102528,70.3237961 L146.525361,119.896792 L135.932887,119.896792 L126.448123,89.1731028 C126.286581,88.6967641 126.119272,88.1750677 125.946192,87.6079979 C125.773111,87.040928 125.605802,86.439843 125.444261,85.8047248 C125.282719,86.439843 125.11541,87.040928 124.94233,87.6079979 C124.769249,88.1750677 124.60194,88.6967641 124.440399,89.1731028 L114.817171,119.896792 L104.224697,119.896792 L88.6475293,70.3237961 Z M194.710732,80.3949058 C194.364571,80.9392928 194.001108,81.347577 193.62033,81.6197705 C193.239553,81.891964 192.749166,82.0280587 192.149154,82.0280587 C191.618373,82.0280587 191.047216,81.8636109 190.435665,81.5347104 C189.824114,81.2058099 189.131802,80.8372201 188.358709,80.4289298 C187.585617,80.0206395 186.702919,79.6520497 185.710591,79.3231492 C184.718263,78.9942487 183.587487,78.8298009 182.31823,78.8298009 C180.125877,78.8298009 178.493175,79.2891206 177.420076,80.2077737 C176.346977,81.1264268 175.810436,82.3682911 175.810436,83.9334038 C175.810436,84.9314467 176.133514,85.7593562 176.779682,86.4171572 C177.425849,87.0749582 178.273931,87.6420195 179.323952,88.1183582 C180.373974,88.5946968 181.573981,89.031334 182.924009,89.4282829 C184.274037,89.8252318 185.652891,90.2675396 187.060612,90.7552196 C188.468334,91.2428997 189.847188,91.8156316 191.197216,92.4734326 C192.547243,93.1312336 193.74725,93.9704844 194.797272,94.9912101 C195.847294,96.0119357 196.695376,97.2538 197.341543,98.7168402 C197.98771,100.17988 198.310789,101.943441 198.310789,104.007575 C198.310789,106.298537 197.90694,108.442029 197.099231,110.438115 C196.291522,112.434201 195.120362,114.175079 193.585715,115.660802 C192.051067,117.146525 190.158749,118.314671 187.908702,119.165276 C185.658656,120.01588 183.102872,120.441176 180.241274,120.441176 C178.672011,120.441176 177.073925,120.282399 175.446968,119.96484 C173.820012,119.647281 172.245003,119.199303 170.721894,118.620891 C169.198786,118.04248 167.768008,117.356336 166.429519,116.562438 C165.09103,115.768541 163.925639,114.883925 162.93331,113.908565 L166.394903,108.53277 C166.648755,108.124479 167.006449,107.795584 167.467997,107.546073 C167.929545,107.296562 168.425702,107.171809 168.956482,107.171809 C169.648804,107.171809 170.346885,107.387292 171.050746,107.818265 C171.754606,108.249238 172.550765,108.72557 173.439245,109.247274 C174.327724,109.768978 175.348884,110.24531 176.502754,110.676283 C177.656624,111.107256 179.01817,111.322739 180.587434,111.322739 C182.710555,111.322739 184.360564,110.86342 185.537511,109.944767 C186.714459,109.026113 187.302924,107.568766 187.302924,105.57268 C187.302924,104.415858 186.979845,103.474536 186.333678,102.748686 C185.68751,102.022837 184.839429,101.421752 183.789407,100.945413 C182.739385,100.469075 181.545148,100.049449 180.206658,99.6865247 C178.868169,99.3236 177.495084,98.9209865 176.087363,98.478672 C174.679642,98.0363576 173.306557,97.4919787 171.968068,96.8455191 C170.629578,96.1990595 169.435341,95.3484675 168.385319,94.2937177 C167.335297,93.2389678 166.487216,91.9233855 165.841048,90.3469314 C165.194881,88.7704773 164.871802,86.825457 164.871802,84.5118121 C164.871802,82.6518231 165.252574,80.8372269 166.014128,79.067969 C166.775682,77.2987112 167.894919,75.7222807 169.371873,74.3386303 C170.848827,72.95498 172.660375,71.8492104 174.806574,71.0212885 C176.952772,70.1933665 179.410478,69.7794118 182.179766,69.7794118 C183.725952,69.7794118 185.23173,69.8984946 186.697145,70.136664 C188.16256,70.3748333 189.552952,70.7264113 190.868364,71.1914086 C192.183776,71.6564058 193.412629,72.2121259 194.554961,72.8585855 C195.697292,73.5050451 196.718452,74.2365542 197.61847,75.0531348 L194.710732,80.3949058 Z" id="NEWS" opacity="0.5"></path>
                    </g>
                </g>
            </g>
        </g>
    </g>
</svg>